<svg xmlns="http://www.w3.org/2000/svg" xmlns:xlink="http://www.w3.org/1999/xlink" version="1.1" width="256" height="256" viewBox="0 0 256 256" xml:space="preserve">

<defs>
</defs>
<g style="stroke: none; stroke-width: 0; stroke-dasharray: none; stroke-linecap: butt; stroke-linejoin: miter; stroke-miterlimit: 10; fill: none; fill-rule: nonzero; opacity: 1;" transform="translate(36.059143968871595 36.05914396887157) scale(2.03 2.03)" >
	<path d="M 39.272 41.677 c -8.707 0 -15.766 7.059 -15.766 15.766 c 0 4.491 1.887 8.533 4.9 11.405 l -4.969 8.578 L 0.999 75.773 v 10.542 l 28.235 2.079 l 8.832 -15.247 c 0.399 0.03 0.799 0.061 1.206 0.061 c 8.707 0 15.766 -7.059 15.766 -15.766 C 55.038 48.735 47.979 41.677 39.272 41.677 z" style="stroke: none; stroke-width: 1; stroke-dasharray: none; stroke-linecap: butt; stroke-linejoin: miter; stroke-miterlimit: 10; fill: rgb(176,182,188); fill-rule: nonzero; opacity: 1;" transform=" matrix(1 0 0 1 0 0) " stroke-linecap="round" />
	<path d="M 29.234 89.395 c -0.024 0 -0.049 -0.001 -0.073 -0.003 L 0.926 87.313 c -0.522 -0.038 -0.927 -0.474 -0.927 -0.997 V 75.773 c 0 -0.278 0.116 -0.543 0.319 -0.732 c 0.204 -0.189 0.483 -0.286 0.754 -0.265 l 21.814 1.606 l 4.269 -7.371 c -3.004 -3.136 -4.649 -7.214 -4.649 -11.569 c 0 -9.244 7.521 -16.766 16.766 -16.766 c 9.245 0 16.766 7.522 16.766 16.766 s -7.521 16.765 -16.766 16.765 c -0.219 0 -0.437 -0.008 -0.653 -0.021 l -8.52 14.708 C 29.92 89.206 29.589 89.395 29.234 89.395 z M 1.999 85.387 l 26.684 1.965 L 37.2 72.646 c 0.193 -0.332 0.557 -0.521 0.941 -0.496 c 0.375 0.028 0.749 0.058 1.13 0.058 c 8.141 0 14.766 -6.623 14.766 -14.765 s -6.624 -14.766 -14.766 -14.766 c -8.142 0 -14.766 6.624 -14.766 14.766 c 0 4.067 1.63 7.86 4.59 10.681 c 0.334 0.318 0.407 0.825 0.175 1.225 l -4.969 8.578 c -0.192 0.332 -0.56 0.526 -0.939 0.496 L 1.999 76.849 V 85.387 z" style="stroke: none; stroke-width: 1; stroke-dasharray: none; stroke-linecap: butt; stroke-linejoin: miter; stroke-miterlimit: 10; fill: rgb(0,0,0); fill-rule: nonzero; opacity: 1;" transform=" matrix(1 0 0 1 0 0) " stroke-linecap="round" />
	<path d="M 88.193 35.891 l -7.266 8.295 l -0.216 0.947 l 7.901 1.8 c 1.187 7.093 -0.358 13.633 -4.478 19.654 l -7.901 -1.8 l -1.653 7.254 L 4.54 56.084 c -2.451 -0.558 -3.985 -2.998 -3.426 -5.448 l 6.479 -28.44 c 0.558 -2.451 2.998 -3.985 5.448 -3.426 L 88.193 35.891 z" style="stroke: none; stroke-width: 1; stroke-dasharray: none; stroke-linecap: butt; stroke-linejoin: miter; stroke-miterlimit: 10; fill: rgb(177,190,201); fill-rule: nonzero; opacity: 1;" transform=" matrix(1 0 0 1 0 0) " stroke-linecap="round" />
	<path d="M 74.582 73.041 c -0.074 0 -0.148 -0.008 -0.222 -0.025 L 4.318 57.059 c -1.446 -0.329 -2.677 -1.202 -3.466 -2.457 c -0.79 -1.255 -1.043 -2.742 -0.713 -4.189 l 6.479 -28.439 c 0.679 -2.984 3.661 -4.86 6.646 -4.18 l 75.151 17.122 c 0.344 0.078 0.621 0.332 0.73 0.667 c 0.108 0.335 0.033 0.703 -0.199 0.967 l -6.887 7.864 l 6.778 1.544 c 0.395 0.09 0.696 0.41 0.764 0.81 c 1.214 7.252 -0.347 14.11 -4.639 20.383 c -0.231 0.339 -0.646 0.504 -1.048 0.41 l -6.925 -1.578 l -1.431 6.278 c -0.059 0.259 -0.218 0.483 -0.442 0.625 C 74.954 72.988 74.768 73.041 74.582 73.041 z M 12.024 19.655 c -0.661 0 -1.311 0.186 -1.884 0.546 c -0.803 0.505 -1.361 1.293 -1.572 2.217 L 2.089 50.858 c -0.211 0.925 -0.049 1.877 0.456 2.68 c 0.505 0.803 1.293 1.361 2.217 1.572 l 69.067 15.734 l 1.431 -6.278 c 0.059 -0.259 0.218 -0.483 0.442 -0.625 c 0.224 -0.141 0.493 -0.19 0.755 -0.128 l 7.229 1.648 c 3.579 -5.486 4.939 -11.435 4.043 -17.702 l -7.239 -1.649 c -0.538 -0.123 -0.875 -0.659 -0.752 -1.197 l 0.216 -0.947 c 0.036 -0.162 0.113 -0.312 0.223 -0.437 l 6.159 -7.034 L 12.819 19.744 C 12.555 19.684 12.288 19.655 12.024 19.655 z" style="stroke: none; stroke-width: 1; stroke-dasharray: none; stroke-linecap: butt; stroke-linejoin: miter; stroke-miterlimit: 10; fill: rgb(0,0,0); fill-rule: nonzero; opacity: 1;" transform=" matrix(1 0 0 1 0 0) " stroke-linecap="round" />
	<path d="M 76.235 65.787 c -0.073 0 -0.148 -0.008 -0.223 -0.025 l -4.651 -1.06 c -0.539 -0.122 -0.876 -0.658 -0.753 -1.196 c 0.122 -0.538 0.66 -0.882 1.196 -0.753 l 4.651 1.06 c 0.539 0.122 0.876 0.658 0.753 1.196 C 77.103 65.472 76.691 65.787 76.235 65.787 z" style="stroke: none; stroke-width: 1; stroke-dasharray: none; stroke-linecap: butt; stroke-linejoin: miter; stroke-miterlimit: 10; fill: rgb(0,0,0); fill-rule: nonzero; opacity: 1;" transform=" matrix(1 0 0 1 0 0) " stroke-linecap="round" />
	<path d="M 45 49.221 c -0.552 0 -1 -0.447 -1 -1 V 33.173 c 0 -0.552 0.448 -1 1 -1 s 1 0.448 1 1 v 15.048 C 46 48.774 45.552 49.221 45 49.221 z" style="stroke: none; stroke-width: 1; stroke-dasharray: none; stroke-linecap: butt; stroke-linejoin: miter; stroke-miterlimit: 10; fill: rgb(0,0,0); fill-rule: nonzero; opacity: 1;" transform=" matrix(1 0 0 1 0 0) " stroke-linecap="round" />
	<path d="M 58.587 49.221 c -0.553 0 -1 -0.447 -1 -1 V 45.71 l -4.719 -3.727 c -0.24 -0.189 -0.38 -0.479 -0.38 -0.785 v -8.026 c 0 -0.552 0.447 -1 1 -1 s 1 0.448 1 1 v 7.541 l 4.719 3.727 c 0.24 0.189 0.38 0.479 0.38 0.785 v 2.995 C 59.587 48.774 59.14 49.221 58.587 49.221 z" style="stroke: none; stroke-width: 1; stroke-dasharray: none; stroke-linecap: butt; stroke-linejoin: miter; stroke-miterlimit: 10; fill: rgb(0,0,0); fill-rule: nonzero; opacity: 1;" transform=" matrix(1 0 0 1 0 0) " stroke-linecap="round" />
	<path d="M 31.413 49.221 c -0.552 0 -1 -0.447 -1 -1 v -2.995 c 0 -0.306 0.14 -0.595 0.38 -0.785 l 4.718 -3.727 v -7.541 c 0 -0.552 0.448 -1 1 -1 s 1 0.448 1 1 v 8.026 c 0 0.306 -0.14 0.595 -0.38 0.785 l -4.718 3.727 v 2.511 C 32.413 48.774 31.965 49.221 31.413 49.221 z" style="stroke: none; stroke-width: 1; stroke-dasharray: none; stroke-linecap: butt; stroke-linejoin: miter; stroke-miterlimit: 10; fill: rgb(0,0,0); fill-rule: nonzero; opacity: 1;" transform=" matrix(1 0 0 1 0 0) " stroke-linecap="round" />
	<circle cx="58.587" cy="52.657000000000004" r="3.847" style="stroke: none; stroke-width: 1; stroke-dasharray: none; stroke-linecap: butt; stroke-linejoin: miter; stroke-miterlimit: 10; fill: rgb(80,143,247); fill-rule: nonzero; opacity: 1;" transform="  matrix(1 0 0 1 0 0) "/>
	<path d="M 58.587 57.501 c -2.673 0 -4.847 -2.174 -4.847 -4.847 c 0 -2.673 2.174 -4.847 4.847 -4.847 s 4.847 2.174 4.847 4.847 C 63.434 55.327 61.26 57.501 58.587 57.501 z M 58.587 49.808 c -1.569 0 -2.847 1.277 -2.847 2.847 c 0 1.569 1.277 2.847 2.847 2.847 s 2.847 -1.277 2.847 -2.847 C 61.434 51.085 60.157 49.808 58.587 49.808 z" style="stroke: none; stroke-width: 1; stroke-dasharray: none; stroke-linecap: butt; stroke-linejoin: miter; stroke-miterlimit: 10; fill: rgb(0,0,0); fill-rule: nonzero; opacity: 1;" transform=" matrix(1 0 0 1 0 0) " stroke-linecap="round" />
	<circle cx="44.997" cy="52.657000000000004" r="3.847" style="stroke: none; stroke-width: 1; stroke-dasharray: none; stroke-linecap: butt; stroke-linejoin: miter; stroke-miterlimit: 10; fill: rgb(126,198,197); fill-rule: nonzero; opacity: 1;" transform="  matrix(1 0 0 1 0 0) "/>
	<path d="M 45 57.501 c -2.672 0 -4.847 -2.174 -4.847 -4.847 c 0 -2.673 2.174 -4.847 4.847 -4.847 c 2.673 0 4.847 2.174 4.847 4.847 C 49.847 55.327 47.673 57.501 45 57.501 z M 45 49.808 c -1.57 0 -2.847 1.277 -2.847 2.847 c 0 1.569 1.277 2.847 2.847 2.847 c 1.569 0 2.847 -1.277 2.847 -2.847 C 47.847 51.085 46.569 49.808 45 49.808 z" style="stroke: none; stroke-width: 1; stroke-dasharray: none; stroke-linecap: butt; stroke-linejoin: miter; stroke-miterlimit: 10; fill: rgb(0,0,0); fill-rule: nonzero; opacity: 1;" transform=" matrix(1 0 0 1 0 0) " stroke-linecap="round" />
	<circle cx="31.417" cy="52.657000000000004" r="3.847" style="stroke: none; stroke-width: 1; stroke-dasharray: none; stroke-linecap: butt; stroke-linejoin: miter; stroke-miterlimit: 10; fill: rgb(220,51,51); fill-rule: nonzero; opacity: 1;" transform="  matrix(1 0 0 1 0 0) "/>
	<path d="M 31.413 57.501 c -2.672 0 -4.846 -2.174 -4.846 -4.847 c 0 -2.673 2.174 -4.847 4.846 -4.847 s 4.847 2.174 4.847 4.847 C 36.26 55.327 34.085 57.501 31.413 57.501 z M 31.413 49.808 c -1.569 0 -2.846 1.277 -2.846 2.847 c 0 1.569 1.277 2.847 2.846 2.847 c 1.57 0 2.847 -1.277 2.847 -2.847 C 34.259 51.085 32.983 49.808 31.413 49.808 z" style="stroke: none; stroke-width: 1; stroke-dasharray: none; stroke-linecap: butt; stroke-linejoin: miter; stroke-miterlimit: 10; fill: rgb(0,0,0); fill-rule: nonzero; opacity: 1;" transform=" matrix(1 0 0 1 0 0) " stroke-linecap="round" />
	<path d="M 56.482 32.699 H 33.518 c -2.245 0 -4.065 -1.82 -4.065 -4.065 V 5.67 c 0 -2.245 1.82 -4.065 4.065 -4.065 h 22.964 c 2.245 0 4.065 1.82 4.065 4.065 v 22.964 C 60.547 30.879 58.727 32.699 56.482 32.699 z" style="stroke: none; stroke-width: 1; stroke-dasharray: none; stroke-linecap: butt; stroke-linejoin: miter; stroke-miterlimit: 10; fill: rgb(80,143,247); fill-rule: nonzero; opacity: 1;" transform=" matrix(1 0 0 1 0 0) " stroke-linecap="round" />
	<path d="M 56.482 33.699 H 33.518 c -2.793 0 -5.065 -2.272 -5.065 -5.065 V 5.67 c 0 -2.793 2.272 -5.065 5.065 -5.065 h 22.964 c 2.793 0 5.066 2.272 5.066 5.065 v 22.964 C 61.547 31.427 59.275 33.699 56.482 33.699 z M 33.518 2.605 c -1.69 0 -3.065 1.375 -3.065 3.065 v 22.964 c 0 1.69 1.375 3.065 3.065 3.065 h 22.964 c 1.69 0 3.066 -1.375 3.066 -3.065 V 5.67 c 0 -1.69 -1.375 -3.065 -3.066 -3.065 H 33.518 z" style="stroke: none; stroke-width: 1; stroke-dasharray: none; stroke-linecap: butt; stroke-linejoin: miter; stroke-miterlimit: 10; fill: rgb(0,0,0); fill-rule: nonzero; opacity: 1;" transform=" matrix(1 0 0 1 0 0) " stroke-linecap="round" />
	<path d="M 44.136 24.49 c -0.552 0 -1 -0.448 -1 -1 v -9.943 c 0 -0.956 -0.777 -1.733 -1.733 -1.733 h -2.402 c -0.956 0 -1.733 0.777 -1.733 1.733 v 9.943 c 0 0.552 -0.448 1 -1 1 s -1 -0.448 -1 -1 v -9.943 c 0 -2.058 1.675 -3.733 3.733 -3.733 h 2.402 c 2.058 0 3.733 1.675 3.733 3.733 v 9.943 C 45.136 24.042 44.688 24.49 44.136 24.49 z" style="stroke: none; stroke-width: 1; stroke-dasharray: none; stroke-linecap: butt; stroke-linejoin: miter; stroke-miterlimit: 10; fill: rgb(0,0,0); fill-rule: nonzero; opacity: 1;" transform=" matrix(1 0 0 1 0 0) " stroke-linecap="round" />
	<path d="M 44.136 18.152 h -7.868 c -0.552 0 -1 -0.448 -1 -1 c 0 -0.552 0.448 -1 1 -1 h 7.868 c 0.552 0 1 0.448 1 1 C 45.136 17.704 44.688 18.152 44.136 18.152 z" style="stroke: none; stroke-width: 1; stroke-dasharray: none; stroke-linecap: butt; stroke-linejoin: miter; stroke-miterlimit: 10; fill: rgb(0,0,0); fill-rule: nonzero; opacity: 1;" transform=" matrix(1 0 0 1 0 0) " stroke-linecap="round" />
	<path d="M 51.134 24.49 c -0.553 0 -1 -0.448 -1 -1 V 10.815 c 0 -0.552 0.447 -1 1 -1 s 1 0.448 1 1 V 23.49 C 52.134 24.042 51.687 24.49 51.134 24.49 z" style="stroke: none; stroke-width: 1; stroke-dasharray: none; stroke-linecap: butt; stroke-linejoin: miter; stroke-miterlimit: 10; fill: rgb(0,0,0); fill-rule: nonzero; opacity: 1;" transform=" matrix(1 0 0 1 0 0) " stroke-linecap="round" />
	<path d="M 53.732 11.815 h -5.196 c -0.553 0 -1 -0.448 -1 -1 c 0 -0.552 0.447 -1 1 -1 h 5.196 c 0.553 0 1 0.448 1 1 C 54.732 11.367 54.284 11.815 53.732 11.815 z" style="stroke: none; stroke-width: 1; stroke-dasharray: none; stroke-linecap: butt; stroke-linejoin: miter; stroke-miterlimit: 10; fill: rgb(0,0,0); fill-rule: nonzero; opacity: 1;" transform=" matrix(1 0 0 1 0 0) " stroke-linecap="round" />
	<path d="M 53.732 24.49 h -5.196 c -0.553 0 -1 -0.448 -1 -1 c 0 -0.552 0.447 -1 1 -1 h 5.196 c 0.553 0 1 0.448 1 1 C 54.732 24.042 54.284 24.49 53.732 24.49 z" style="stroke: none; stroke-width: 1; stroke-dasharray: none; stroke-linecap: butt; stroke-linejoin: miter; stroke-miterlimit: 10; fill: rgb(0,0,0); fill-rule: nonzero; opacity: 1;" transform=" matrix(1 0 0 1 0 0) " stroke-linecap="round" />
</g>
</svg>